<svg width="60" height="60" viewBox="0 0 60 60" fill="none" xmlns="http://www.w3.org/2000/svg">
<path d="M19.0675 28.4475C15.15 28.4475 12.5 25.7175 12.5 21.6725C12.5 18.0325 15.54 15 19.6575 15C24.1675 15 27.5 18.64 27.5 24.2C27.5 36.8375 18.285 41.8925 12.5 42.5V36.94C16.4225 36.2325 20.8325 32.29 21.03 27.94C20.8325 28.04 20.05 28.4475 19.0675 28.4475ZM39.0675 28.4475C35.1475 28.4475 32.5 25.7175 32.5 21.6725C32.5 18.0325 35.54 15 39.6575 15C44.1675 15 47.5 18.64 47.5 24.2C47.5 36.8375 38.285 41.8925 32.5 42.5V36.94C36.4225 36.2325 40.8325 32.29 41.03 27.94C40.8325 28.04 40.05 28.4475 39.0675 28.4475Z" fill="#333333"/>
</svg>
