<svg width="26" height="26" viewBox="0 0 26 26" fill="none" xmlns="http://www.w3.org/2000/svg">
<path fill-rule="evenodd" clip-rule="evenodd" d="M0 0H26V26H0V0Z" fill="white"/>
<path fill-rule="evenodd" clip-rule="evenodd" d="M12.5346 18.0589C13.313 17.3539 13.9344 16.4953 14.359 15.538C14.7836 14.5807 15.0019 13.5459 15 12.5C15.0019 11.4541 14.7836 10.4193 14.359 9.46197C13.9345 8.50469 13.313 7.64605 12.5346 6.94114C11.2035 5.73501 9.43765 5 7.49993 5C3.35796 5 0 8.35782 0 12.5C0 16.642 3.35796 20 7.49993 20C9.43765 20 11.2036 19.265 12.5346 18.0589Z" fill="#3A9BD9"/>
<path fill-rule="evenodd" clip-rule="evenodd" d="M18.4148 5C16.455 5 14.6688 5.735 13.3228 6.94112C13.0483 7.18729 12.7924 7.45267 12.557 7.73518H14.0881C14.2983 7.98734 14.4916 8.25263 14.6668 8.52937H11.9787C11.8169 8.78529 11.6709 9.05049 11.5414 9.32357H15.1034C15.226 9.58202 15.3335 9.84714 15.4253 10.1176H11.2202C11.132 10.3782 11.0585 10.6432 11 10.9117H15.6457C15.7594 11.4337 15.8166 11.9661 15.8164 12.4999C15.8164 13.3326 15.6787 14.1337 15.4254 14.8821H11.2202C11.3117 15.1527 11.4189 15.4178 11.5414 15.6763H15.1034C14.9742 15.9494 14.8283 16.2146 14.6667 16.4705H11.9787C12.1537 16.7472 12.3468 17.0125 12.5569 17.2647H14.0881C13.853 17.5473 13.5973 17.8128 13.3228 18.0589C14.6688 19.265 16.455 20 18.4148 20C22.6037 20 26 16.6421 26 12.5001C26 8.35779 22.6037 5 18.4148 5Z" fill="#CC2131"/>
<path fill-rule="evenodd" clip-rule="evenodd" d="M25 17.2458C25 17.1101 25.1091 17 25.244 17C25.3786 17 25.4877 17.1101 25.4877 17.2458C25.4877 17.3812 25.3786 17.4913 25.244 17.4913C25.1791 17.491 25.1169 17.4651 25.0712 17.419C25.0254 17.373 24.9998 17.3107 25 17.2458ZM25.2439 17.4322C25.3461 17.4322 25.4291 17.349 25.4291 17.2456C25.4291 17.1423 25.3461 17.0588 25.2439 17.0588C25.1414 17.0588 25.0584 17.1423 25.0584 17.2456C25.0584 17.349 25.1415 17.4322 25.2439 17.4322ZM25.211 17.3534H25.1609V17.1373H25.2516C25.2703 17.1373 25.2895 17.1379 25.3061 17.1484C25.3147 17.1545 25.3217 17.1626 25.3264 17.172C25.3312 17.1814 25.3336 17.1918 25.3334 17.2023C25.3334 17.2266 25.3193 17.2495 25.2963 17.2582L25.3359 17.3533H25.2803L25.2477 17.2679H25.2111V17.3534V17.2312H25.2387C25.2487 17.2312 25.2601 17.2317 25.2691 17.2267C25.2731 17.224 25.2764 17.2203 25.2786 17.2159C25.2808 17.2116 25.2819 17.2068 25.2818 17.2019C25.2816 17.1976 25.2804 17.1933 25.2783 17.1895C25.2762 17.1858 25.2732 17.1825 25.2696 17.1801C25.261 17.1748 25.247 17.1762 25.2375 17.1762H25.2112V17.3534H25.211Z" fill="#CC2131"/>
<path fill-rule="evenodd" clip-rule="evenodd" d="M23.016 14.6486C23.016 14.5129 23.1251 14.4028 23.2597 14.4028C23.3943 14.4028 23.5035 14.5129 23.5035 14.6486C23.5035 14.7843 23.3943 14.8941 23.2597 14.8941C23.1251 14.8941 23.016 14.7841 23.016 14.6486ZM23.2596 14.835C23.3618 14.835 23.4448 14.7515 23.4448 14.6484C23.4448 14.5451 23.3618 14.4616 23.2596 14.4616C23.1571 14.4616 23.0744 14.5451 23.0744 14.6484C23.0744 14.7515 23.1572 14.835 23.2596 14.835ZM23.2267 14.7562H23.1766V14.5404H23.2673C23.286 14.5404 23.3054 14.5407 23.3218 14.5515C23.3304 14.5575 23.3374 14.5655 23.3421 14.5749C23.3469 14.5843 23.3493 14.5946 23.3491 14.6051C23.3491 14.6297 23.3351 14.6524 23.3121 14.661L23.3516 14.7561H23.2963L23.2634 14.6707H23.2268V14.7562V14.634H23.2545C23.2647 14.634 23.276 14.6348 23.2848 14.6298C23.2888 14.627 23.292 14.6233 23.2942 14.619C23.2964 14.6147 23.2975 14.6099 23.2975 14.605C23.2974 14.6006 23.2962 14.5963 23.2941 14.5925C23.292 14.5886 23.289 14.5853 23.2853 14.5829C23.2767 14.5779 23.2627 14.579 23.2535 14.579H23.2269V14.7562H23.2267ZM6.98888 14.8941H6.04927L6.60769 11.9298L5.32196 14.8941H4.46517L4.30857 11.9468L3.74839 14.8941H2.89551L3.62429 11.0381H5.0905L5.16806 13.4253L6.20182 11.0381H7.72967L6.98888 14.8941ZM17.4899 14.8556C17.2328 14.9267 17.0318 14.9573 16.8146 14.9573C16.3339 14.9573 16.0714 14.7144 16.0714 14.2687C16.0714 14.1805 16.0811 14.0866 16.0991 13.9874L16.1562 13.6808L16.2002 13.4326L16.6358 11.038H17.5702L17.4348 11.7581H17.9143L17.7855 12.5205H17.304L17.0563 13.8289C17.0472 13.8716 17.0418 13.9151 17.0403 13.9588C17.0403 14.1208 17.1375 14.1912 17.3609 14.1912C17.4679 14.1912 17.5508 14.1815 17.6144 14.1619L17.4899 14.8556ZM20.2342 11.7839C20.1555 11.7526 20.137 11.7526 20.1278 11.75C20.078 11.739 20.0515 11.7325 20.0469 11.7317C20.0157 11.7262 19.984 11.7236 19.9523 11.7239C19.6438 11.7239 19.4214 11.8622 19.1338 12.233L19.2168 11.7578H18.3658L17.7931 14.8939H18.7334C19.0698 12.976 19.2138 12.6401 19.6649 12.6401C19.6989 12.6401 19.7381 12.6428 19.7837 12.6481L19.8935 12.6706L20.2342 11.7839ZM13.765 12.7489C13.765 13.145 13.9866 13.4179 14.4889 13.6229C14.8739 13.7805 14.9334 13.8266 14.9334 13.969C14.9334 14.1642 14.7637 14.2523 14.3878 14.2523C14.104 14.2523 13.8403 14.2138 13.5358 14.1282L13.4054 14.8516L13.4475 14.8587L13.6216 14.8908C13.6777 14.9005 13.7604 14.9099 13.8701 14.9182C14.0961 14.9359 14.2711 14.9442 14.3944 14.9442C15.3974 14.9442 15.8607 14.6131 15.8607 13.8978C15.8607 13.4674 15.667 13.215 15.1907 13.025C14.7921 12.8662 14.746 12.831 14.746 12.6846C14.746 12.5156 14.9041 12.4288 15.2112 12.4288C15.3981 12.4288 15.6527 12.4464 15.8943 12.4758L16.0297 11.7499C15.7837 11.7162 15.4103 11.6885 15.1933 11.6885C14.1299 11.6887 13.7618 12.1705 13.765 12.7489ZM10.0435 14.8941H9.26265L9.28086 14.569C9.04305 14.8264 8.72607 14.9483 8.29525 14.9483C7.78605 14.9483 7.43657 14.5989 7.43657 14.0918C7.43657 13.3278 8.04369 12.8825 9.08716 12.8825C9.19412 12.8825 9.32995 12.891 9.46997 12.9067C9.4991 12.8036 9.50706 12.7591 9.50706 12.703C9.50706 12.4954 9.34317 12.4177 8.90439 12.4177C8.6361 12.4177 8.33288 12.4517 8.12354 12.5051L7.99337 12.5384L7.90907 12.5587L8.03937 11.8536C8.50783 11.7328 8.81698 11.687 9.16431 11.687C9.97187 11.687 10.3987 12.0056 10.3987 12.607C10.3987 12.7617 10.3845 12.8792 10.3223 13.2282L10.1259 14.3408L10.0929 14.5404L10.0689 14.6998L10.0528 14.809L10.0435 14.8941ZM9.35801 13.4969C9.28834 13.4883 9.2182 13.4839 9.14799 13.484C8.61547 13.484 8.34569 13.6444 8.34569 13.9611C8.34569 14.1562 8.47734 14.2809 8.68277 14.2809C9.06585 14.281 9.34182 13.9607 9.35801 13.4969ZM13.126 14.8264C12.8122 14.9115 12.4884 14.9543 12.1632 14.9536C11.1127 14.9527 10.5652 14.4709 10.5652 13.5486C10.5652 12.4721 11.2618 11.6795 12.2073 11.6795C12.9809 11.6795 13.4749 12.1234 13.4749 12.8194C13.4749 13.0505 13.4411 13.2757 13.3595 13.5936H11.4912C11.4855 13.6262 11.4825 13.6591 11.4822 13.6921C11.4822 14.0556 11.7607 14.2411 12.3065 14.2411C12.6421 14.2411 12.9454 14.1797 13.2822 14.0427L13.126 14.8264ZM12.6256 12.9604C12.6307 12.8951 12.6334 12.8417 12.6334 12.8004C12.6334 12.5457 12.4687 12.3963 12.189 12.3963C11.8901 12.3963 11.6763 12.5967 11.5896 12.9585L12.6256 12.9604ZM23.1551 13.4722C23.0144 14.5154 22.2912 14.9781 21.3299 14.9781C20.2669 14.9781 19.8375 14.3285 19.8375 13.5325C19.8375 12.4211 20.5647 11.668 21.6878 11.668C22.6626 11.668 23.1801 12.2873 23.1801 13.0834C23.1801 13.2771 23.1799 13.2899 23.1551 13.4722ZM22.1874 13.071C22.1874 12.7429 22.0552 12.4332 21.67 12.4332C21.1904 12.4332 20.8933 13.0042 20.8933 13.5083C20.8933 13.9334 21.097 14.2191 21.4328 14.213C21.6365 14.213 22.0708 13.9335 22.1568 13.4454C22.1769 13.3316 22.1874 13.2067 22.1874 13.071Z" fill="white"/>
</svg>
