<svg width="37" height="25" viewBox="0 0 37 25" fill="none" xmlns="http://www.w3.org/2000/svg">
<path fill-rule="evenodd" clip-rule="evenodd" d="M18.25 17.6005C16.9965 18.4793 15.4384 19 13.75 19C9.60786 19 6.25 15.866 6.25 12C6.25 8.13401 9.60786 5 13.75 5C15.4384 5 16.9965 5.52072 18.25 6.39949C19.5035 5.52072 21.0616 5 22.75 5C26.8921 5 30.25 8.13401 30.25 12C30.25 15.866 26.8921 19 22.75 19C21.0616 19 19.5035 18.4793 18.25 17.6005Z" fill="#ED0006"/>
<path fill-rule="evenodd" clip-rule="evenodd" d="M18.25 17.6005C20.0717 16.3234 21.25 14.2901 21.25 12C21.25 9.70986 20.0717 7.67658 18.25 6.39949C19.5035 5.52072 21.0616 5 22.75 5C26.8921 5 30.25 8.13401 30.25 12C30.25 15.866 26.8921 19 22.75 19C21.0616 19 19.5035 18.4793 18.25 17.6005Z" fill="#F9A000"/>
<path fill-rule="evenodd" clip-rule="evenodd" d="M17.75 17.3622C19.2785 16.0781 20.25 14.1525 20.25 12.0001C20.25 9.84758 19.2785 7.92201 17.75 6.63794C16.2215 7.92201 15.25 9.84758 15.25 12.0001C15.25 14.1525 16.2215 16.0781 17.75 17.3622Z" fill="#FF5E00"/>
</svg>
