<svg width="29" height="9" viewBox="0 0 29 9" fill="none" xmlns="http://www.w3.org/2000/svg">
<g clip-path="url(#clip0_1781_509)">
<path fill-rule="evenodd" clip-rule="evenodd" d="M25.2598 0.544189H20.0198C20.3015 2.29636 21.9918 3.93549 23.8512 3.93549H28.0207C28.077 3.76593 28.077 3.53984 28.077 3.37028C28.077 1.78767 26.8374 0.544189 25.2598 0.544189Z" fill="url(#paint0_linear_1781_509)"/>
<path fill-rule="evenodd" clip-rule="evenodd" d="M20.4705 4.21814V8.45727H23.006V6.1964H25.2598C26.4994 6.1964 27.5699 5.34857 27.908 4.21814H20.4705Z" fill="#319B17"/>
<path fill-rule="evenodd" clip-rule="evenodd" d="M11.4554 0.544189V8.45723H13.7092C13.7092 8.45723 14.2727 8.45723 14.5544 7.89202C16.0757 4.83984 16.5264 3.93549 16.5264 3.93549H16.8082V8.45723H19.3437V0.544189H17.0899C17.0899 0.544189 16.5264 0.600711 16.2447 1.10941C14.9488 3.70941 14.2727 5.06593 14.2727 5.06593H13.9909V0.544189H11.4554Z" fill="#319B17"/>
<path fill-rule="evenodd" clip-rule="evenodd" d="M0.75 8.45723V0.544189H3.2855C3.2855 0.544189 4.01797 0.544189 4.41238 1.67462C5.42658 4.67028 5.53927 5.06593 5.53927 5.06593C5.53927 5.06593 5.76465 4.33115 6.66616 1.67462C7.06057 0.544189 7.79304 0.544189 7.79304 0.544189H10.3285V8.45723H7.79304V4.2181H7.51132L6.10271 8.45723H4.97583L3.56722 4.2181H3.2855V8.45723H0.75Z" fill="#319B17"/>
</g>
<defs>
<linearGradient id="paint0_linear_1781_509" x1="20.0052" y1="2.23984" x2="28.077" y2="2.23984" gradientUnits="userSpaceOnUse">
<stop stop-color="#00B4E6"/>
<stop offset="1" stop-color="#088CCB"/>
</linearGradient>
<clipPath id="clip0_1781_509">
<rect width="27.6087" height="7.91304" fill="white" transform="translate(0.75 0.544189)"/>
</clipPath>
</defs>
</svg>
