<svg width="36" height="25" viewBox="0 0 36 25" fill="none" xmlns="http://www.w3.org/2000/svg">
<path fill-rule="evenodd" clip-rule="evenodd" d="M10.9243 16H8.87357L7.33574 9.60085C7.26275 9.30649 7.10777 9.04626 6.87979 8.92361C6.31085 8.61538 5.68392 8.37008 5 8.24637V8H8.30363C8.75958 8 9.10154 8.37008 9.15854 8.79989L9.95645 13.4158L12.0062 8H14L10.9243 16ZM16.1937 16H14L15.8063 8H18L16.1937 16ZM19.9121 10.3283C19.9703 9.91047 20.32 9.67153 20.728 9.67153C21.3691 9.61154 22.0675 9.73152 22.6503 10.0294L23 8.35892C22.4172 8.11999 21.7761 8 21.1943 8C19.272 8 17.8732 9.0747 17.8732 10.5663C17.8732 11.7009 18.864 12.2967 19.5634 12.6557C20.32 13.0136 20.6115 13.2525 20.5532 13.6104C20.5532 14.1472 19.9703 14.3862 19.3885 14.3862C18.6892 14.3862 17.9898 14.2072 17.3497 13.9083L17 15.5798C17.6994 15.8777 18.456 15.9977 19.1554 15.9977C21.3108 16.0566 22.6503 14.983 22.6503 13.3714C22.6503 11.342 19.9121 11.2231 19.9121 10.3283ZM30 16L28.4251 8H26.7335C26.3833 8 26.0331 8.24637 25.9163 8.61538L23 16H25.0418L25.4494 14.8311H27.9582L28.1916 16H30ZM27.2865 10L28 13H26L27.2865 10Z" fill="#0C4BA0"/>
</svg>
